<svg width="16" height="16" viewBox="0 0 16 16" fill="none" xmlns="http://www.w3.org/2000/svg">
<g clip-path="url(#clip0_23_44)">
<path d="M8.00388 0.121216C4.71404 0.121216 3.75189 0.12461 3.56486 0.140125C2.88973 0.196246 2.46962 0.302549 2.01194 0.530428C1.65922 0.705579 1.38105 0.90861 1.10651 1.19322C0.606528 1.71225 0.303507 2.35079 0.193813 3.10982C0.140482 3.47831 0.124967 3.55346 0.121816 5.43564C0.120603 6.06303 0.121816 6.88873 0.121816 7.99625C0.121816 11.2835 0.125452 12.2447 0.141209 12.4314C0.195753 13.0884 0.29878 13.5017 0.516955 13.9538C0.933912 14.8193 1.73025 15.469 2.66841 15.7114C2.99324 15.795 3.35202 15.8411 3.81261 15.8629C4.00776 15.8714 5.99679 15.8775 7.98703 15.8775C9.97727 15.8775 11.9675 15.875 12.1578 15.8653C12.6911 15.8402 13.0008 15.7987 13.3432 15.7102C14.2874 15.4665 15.0692 14.8265 15.4947 13.949C15.7086 13.5078 15.8171 13.0787 15.8662 12.456C15.8769 12.3202 15.8813 10.1558 15.8813 7.99419C15.8813 5.83225 15.8765 3.67176 15.8658 3.536C15.8161 2.90328 15.7076 2.47782 15.4868 2.02812C15.3056 1.66 15.1044 1.38509 14.8123 1.104C14.291 0.606064 13.6534 0.303034 12.8937 0.193458C12.5256 0.140246 12.4522 0.124489 10.5687 0.121216H8.00388Z" fill="url(#paint0_radial_23_44)"/>
<path d="M8.00388 0.121216C4.71404 0.121216 3.75189 0.12461 3.56486 0.140125C2.88973 0.196246 2.46962 0.302549 2.01194 0.530428C1.65922 0.705579 1.38105 0.90861 1.10651 1.19322C0.606528 1.71225 0.303507 2.35079 0.193813 3.10982C0.140482 3.47831 0.124967 3.55346 0.121816 5.43564C0.120603 6.06303 0.121816 6.88873 0.121816 7.99625C0.121816 11.2835 0.125452 12.2447 0.141209 12.4314C0.195753 13.0884 0.29878 13.5017 0.516955 13.9538C0.933912 14.8193 1.73025 15.469 2.66841 15.7114C2.99324 15.795 3.35202 15.8411 3.81261 15.8629C4.00776 15.8714 5.99679 15.8775 7.98703 15.8775C9.97727 15.8775 11.9675 15.875 12.1578 15.8653C12.6911 15.8402 13.0008 15.7987 13.3432 15.7102C14.2874 15.4665 15.0692 14.8265 15.4947 13.949C15.7086 13.5078 15.8171 13.0787 15.8662 12.456C15.8769 12.3202 15.8813 10.1558 15.8813 7.99419C15.8813 5.83225 15.8765 3.67176 15.8658 3.536C15.8161 2.90328 15.7076 2.47782 15.4868 2.02812C15.3056 1.66 15.1044 1.38509 14.8123 1.104C14.291 0.606064 13.6534 0.303034 12.8937 0.193458C12.5256 0.140246 12.4522 0.124489 10.5687 0.121216H8.00388Z" fill="url(#paint1_radial_23_44)"/>
<path d="M8.00025 2.18182C6.42018 2.18182 6.22188 2.18873 5.6013 2.21698C4.98192 2.24534 4.55915 2.3434 4.18922 2.48728C3.80656 2.63588 3.48197 2.83467 3.15858 3.15819C2.83496 3.48158 2.63617 3.80619 2.48709 4.18873C2.34285 4.55879 2.24467 4.9817 2.21679 5.60085C2.18904 6.22146 2.18176 6.41988 2.18176 8.00001C2.18176 9.58013 2.18879 9.77782 2.21691 10.3984C2.2454 11.0178 2.34345 11.4406 2.48721 11.8106C2.63593 12.1932 2.83471 12.5178 3.15822 12.8412C3.48148 13.1649 3.80608 13.3641 4.18849 13.5127C4.55866 13.6566 4.98156 13.7547 5.60081 13.783C6.2214 13.8113 6.41957 13.8182 7.99953 13.8182C9.57972 13.8182 9.77741 13.8113 10.398 13.783C11.0174 13.7547 11.4406 13.6566 11.8108 13.5127C12.1933 13.3641 12.5175 13.1649 12.8407 12.8412C13.1643 12.5178 13.3631 12.1932 13.5122 11.8107C13.6552 11.4406 13.7534 11.0177 13.7825 10.3986C13.8104 9.77795 13.8177 9.58013 13.8177 8.00001C13.8177 6.41988 13.8104 6.22158 13.7825 5.60098C13.7534 4.98158 13.6552 4.55879 13.5122 4.18885C13.3631 3.80619 13.1643 3.48158 12.8407 3.15819C12.5171 2.83455 12.1935 2.63576 11.8104 2.48728C11.4395 2.3434 11.0165 2.24534 10.3972 2.21698C9.77656 2.18873 9.57899 2.18182 7.99844 2.18182H8.00025ZM7.47833 3.23031C7.63323 3.23007 7.80608 3.23031 8.00025 3.23031C9.55366 3.23031 9.73778 3.23588 10.3512 3.26376C10.9185 3.2897 11.2263 3.38449 11.4314 3.46413C11.7029 3.56958 11.8965 3.69564 12.1 3.89928C12.3036 4.10291 12.4297 4.29685 12.5354 4.56837C12.615 4.77322 12.7099 5.0811 12.7357 5.64837C12.7636 6.2617 12.7697 6.44594 12.7697 7.99867C12.7697 9.5514 12.7636 9.73564 12.7357 10.349C12.7098 10.9162 12.615 11.2241 12.5354 11.429C12.4299 11.7005 12.3036 11.8938 12.1 12.0973C11.8964 12.301 11.703 12.427 11.4314 12.5325C11.2266 12.6125 10.9185 12.707 10.3512 12.733C9.7379 12.7609 9.55366 12.7669 8.00025 12.7669C6.44672 12.7669 6.26261 12.7609 5.64929 12.733C5.08204 12.7068 4.77417 12.612 4.56896 12.5324C4.29746 12.4269 4.10352 12.3009 3.89989 12.0972C3.69626 11.8936 3.57021 11.7001 3.46451 11.4285C3.38488 11.2236 3.28997 10.9158 3.26415 10.3485C3.23628 9.73516 3.2307 9.55091 3.2307 7.99722C3.2307 6.44352 3.23628 6.26025 3.26415 5.64691C3.29009 5.07964 3.38488 4.77176 3.46451 4.56667C3.56996 4.29516 3.69626 4.10122 3.89989 3.89758C4.10352 3.69394 4.29746 3.56788 4.56896 3.46219C4.77405 3.38219 5.08204 3.28764 5.64929 3.26158C6.18601 3.23734 6.394 3.23007 7.47833 3.22885V3.23031ZM11.1059 4.19637C10.7204 4.19637 10.4077 4.50873 10.4077 4.89431C10.4077 5.27976 10.7204 5.59249 11.1059 5.59249C11.4913 5.59249 11.804 5.27976 11.804 4.89431C11.804 4.50885 11.4913 4.19613 11.1059 4.19613V4.19637ZM8.00025 5.01213C6.35024 5.01213 5.01247 6.34995 5.01247 8.00001C5.01247 9.65007 6.35024 10.9873 8.00025 10.9873C9.65026 10.9873 10.9876 9.65007 10.9876 8.00001C10.9876 6.34995 9.65026 5.01213 8.00025 5.01213ZM8.00025 6.06061C9.07125 6.06061 9.93959 6.92885 9.93959 8.00001C9.93959 9.07104 9.07125 9.9394 8.00025 9.9394C6.92913 9.9394 6.06092 9.07104 6.06092 8.00001C6.06092 6.92885 6.92913 6.06061 8.00025 6.06061Z" fill="white"/>
</g>
<defs>
<radialGradient id="paint0_radial_23_44" cx="0" cy="0" r="1" gradientUnits="userSpaceOnUse" gradientTransform="translate(4.30756 17.091) rotate(-90) scale(15.6156 14.5273)">
<stop stop-color="#FFDD55"/>
<stop offset="0.1" stop-color="#FFDD55"/>
<stop offset="0.5" stop-color="#FF543E"/>
<stop offset="1" stop-color="#C837AB"/>
</radialGradient>
<radialGradient id="paint1_radial_23_44" cx="0" cy="0" r="1" gradientUnits="userSpaceOnUse" gradientTransform="translate(-2.51862 1.25627) rotate(78.678) scale(6.9803 28.7795)">
<stop stop-color="#3771C8"/>
<stop offset="0.128" stop-color="#3771C8"/>
<stop offset="1" stop-color="#6600FF" stop-opacity="0"/>
</radialGradient>
<clipPath id="clip0_23_44">
<rect width="16" height="16" fill="white"/>
</clipPath>
</defs>
</svg>
