<svg width="16" height="16" viewBox="0 0 16 16" fill="none" xmlns="http://www.w3.org/2000/svg">
<g clip-path="url(#clip0_23_37)">
<path fill-rule="evenodd" clip-rule="evenodd" d="M1.77778 16H14.2222C15.2041 16 16 15.2041 16 14.2222V1.77778C16 0.795938 15.2041 0 14.2222 0H1.77778C0.795938 0 0 0.795938 0 1.77778V14.2222C0 15.2041 0.795938 16 1.77778 16Z" fill="#007EBB"/>
<path fill-rule="evenodd" clip-rule="evenodd" d="M13.7778 13.7778H11.4035V9.73381C11.4035 8.62506 10.9822 8.00546 10.1046 8.00546C9.14992 8.00546 8.65114 8.65025 8.65114 9.73381V13.7778H6.36297V6.07408H8.65114V7.11177C8.65114 7.11177 9.33913 5.83872 10.9739 5.83872C12.6079 5.83872 13.7778 6.83656 13.7778 8.90028V13.7778ZM3.6332 5.06534C2.8538 5.06534 2.22223 4.42882 2.22223 3.64379C2.22223 2.85875 2.8538 2.22223 3.6332 2.22223C4.41259 2.22223 5.04379 2.85875 5.04379 3.64379C5.04379 4.42882 4.41259 5.06534 3.6332 5.06534ZM2.45168 13.7778H4.83765V6.07408H2.45168V13.7778Z" fill="white"/>
</g>
<defs>
<clipPath id="clip0_23_37">
<rect width="16" height="16" fill="white"/>
</clipPath>
</defs>
</svg>
